<?xml version="1.0" standalone="no"?>
<!DOCTYPE svg PUBLIC "-//W3C//DTD SVG 20010904//EN"
 "http://www.w3.org/TR/2001/REC-SVG-20010904/DTD/svg10.dtd">
<svg version="1.0" xmlns="http://www.w3.org/2000/svg"
 width="16.000000pt" height="16.000000pt" viewBox="0 0 16.000000 16.000000"
 preserveAspectRatio="xMidYMid meet">

<g transform="translate(0.000000,16.000000) scale(0.100000,-0.100000)"
fill="#444" stroke="none">
<path d="M4 147 c-3 -8 -4 -43 -2 -78 l3 -64 75 0 75 0 0 75 0 75 -73 3 c-55
2 -74 -1 -78 -11z m114 -23 c26 -18 29 -60 5 -86 -17 -19 -103 -26 -103 -8 0
6 5 10 10 10 6 0 10 18 10 40 0 22 -4 40 -10 40 -5 0 -10 5 -10 10 0 16 73 12
98 -6z"/>
<path d="M60 80 c0 -33 3 -40 20 -40 24 0 38 44 20 65 -23 28 -40 18 -40 -25z"/>
</g>
</svg>
